HIERARCHY
ROOT Hips
{
	OFFSET -8.665500 -1.496397 44.816700
	CHANNELS 6 Xposition Yposition Zposition Zrotation Xrotation Yrotation
	JOINT Chest
	{
		OFFSET -0.698600 0.806100 5.350899
		CHANNELS 6 Xposition Yposition Zposition Zrotation Xrotation Yrotation
		JOINT Chest2
		{
			OFFSET 0.000000 0.000000 4.409100
			CHANNELS 6 Xposition Yposition Zposition Zrotation Xrotation Yrotation
			JOINT Neck
			{
				OFFSET 0.000000 0.000001 10.248299
				CHANNELS 6 Xposition Yposition Zposition Zrotation Xrotation Yrotation
				JOINT Head
				{
					OFFSET 0.000000 0.000000 2.173897
					CHANNELS 6 Xposition Yposition Zposition Zrotation Xrotation Yrotation
					End Site
					{
						OFFSET 0.000000 0.000001 9.966400
					}
				}
			}
			JOINT LeftCollar
			{
				OFFSET 2.100600 -0.520900 6.016098
				CHANNELS 6 Xposition Yposition Zposition Zrotation Xrotation Yrotation
				JOINT LeftShoulder
				{
					OFFSET 5.536700 0.000000 0.000000
					CHANNELS 6 Xposition Yposition Zposition Zrotation Xrotation Yrotation
					JOINT LeftElbow
					{
						OFFSET 0.000000 -0.000001 -12.362099
						CHANNELS 6 Xposition Yposition Zposition Zrotation Xrotation Yrotation
						JOINT LeftWrist
						{
							OFFSET 0.000000 -0.000001 -10.273201
							CHANNELS 6 Xposition Yposition Zposition Zrotation Xrotation Yrotation
							End Site
							{
								OFFSET 0.000000 -0.000000 -2.173901
							}
						}
					}
				}
			}
			JOINT RightCollar
			{
				OFFSET -2.899500 -1.655900 6.981701
				CHANNELS 6 Xposition Yposition Zposition Zrotation Xrotation Yrotation
				JOINT RightShoulder
				{
					OFFSET -4.387501 0.000000 0.000000
					CHANNELS 6 Xposition Yposition Zposition Zrotation Xrotation Yrotation
					JOINT RightElbow
					{
						OFFSET 0.000000 -0.000001 -10.858101
						CHANNELS 6 Xposition Yposition Zposition Zrotation Xrotation Yrotation
						JOINT RightWrist
						{
							OFFSET 0.000000 -0.000001 -12.079601
							CHANNELS 6 Xposition Yposition Zposition Zrotation Xrotation Yrotation
							End Site
							{
								OFFSET 0.000000 0.000000 -2.173901
							}
						}
					}
				}
			}
		}
	}
	JOINT LeftHip
	{
		OFFSET 2.190800 0.073900 -2.522499
		CHANNELS 6 Xposition Yposition Zposition Zrotation Xrotation Yrotation
		JOINT LeftKnee
		{
			OFFSET 0.000000 -0.000002 -20.305000
			CHANNELS 6 Xposition Yposition Zposition Zrotation Xrotation Yrotation
			JOINT LeftAnkle
			{
				OFFSET 0.000000 -0.000001 -16.771700
				CHANNELS 6 Xposition Yposition Zposition Zrotation Xrotation Yrotation
				End Site
				{
					OFFSET 0.000000 -8.738000 0.000001
				}
			}
		}
	}
	JOINT RightHip
	{
		OFFSET -2.029500 0.054300 -2.705200
		CHANNELS 6 Xposition Yposition Zposition Zrotation Xrotation Yrotation
		JOINT RightKnee
		{
			OFFSET 0.000000 -0.000002 -20.030399
			CHANNELS 6 Xposition Yposition Zposition Zrotation Xrotation Yrotation
			JOINT RightAnkle
			{
				OFFSET 0.000000 -0.000001 -17.032700
				CHANNELS 6 Xposition Yposition Zposition Zrotation Xrotation Yrotation
				End Site
				{
					OFFSET 0.000000 -8.823600 0.000001
				}
			}
		}
	}
}
MOTION
Frames: 10
Frame Time: 0.041667
17.548595 -18.934502 14.845995 2671.538991 9.248835 -7.653006 -0.698599 0.806101 5.350894 -4.917306 -9.659114 18.330877 0.000003 0.000001 4.409099 1.224632 -5.562043 -0.523210 0.000004 -0.000002 10.248306 56.986447 -5.175853 -17.339169 0.000000 -0.000002 2.173897 3.173148 0.043383 6.462049 2.100605 -0.520902 6.016109 10.100113 -2.933146 11.989687 5.536695 0.000000 0.000004 521.321947 220.178989 68.253391 0.000002 -0.000000 -12.362090 491.248297 -2.489180 362.452348 -0.000003 -0.000000 -10.273202 2285.041208 176.319913 -178.274890 -2.899500 -1.655900 6.981703 -15.723835 -16.508593 29.034786 -4.387496 0.000004 0.000001 -196.136805 -392.809889 593.985052 -0.000003 -0.000002 -10.858097 90.536924 -146.115040 59.179614 0.000003 0.000003 -12.079606 370.095685 5.339451 9.739999 2.190803 0.073899 -2.522500 -381.443061 -172.323938 -112.402429 -0.000002 0.000006 -20.305006 -989.960624 -48.514612 72.060490 -0.000006 0.000006 -16.771709 1556.324500 44.458760 79.661917 -2.029499 0.054296 -2.705200 -446.144514 -37.146462 -79.916622 0.000001 -0.000005 -20.030397 357.306265 171.955681 28.013698 -0.000000 -0.000004 -17.032700 91.064344 75.884392 -84.982634
17.553894 -18.956102 14.821192 2671.622046 9.496108 -7.693190 -0.698596 0.806100 5.350900 -5.060791 -9.356394 18.363168 0.000001 0.000001 4.409108 1.321449 -5.605584 -0.428575 -0.000003 0.000001 10.248297 56.462254 -5.099698 -17.219525 -0.000000 0.000001 2.173895 3.275597 -0.018632 6.556568 2.100602 -0.520900 6.016106 9.771059 -3.457006 11.896458 5.536692 0.000002 0.000000 522.766396 216.971232 69.461562 -0.000004 0.000002 -12.362095 494.616454 -2.673999 362.299953 -0.000001 -0.000001 -10.273199 2284.452172 177.872811 -178.906642 -2.899502 -1.655898 6.981698 -15.802073 -16.553214 28.920705 -4.387498 -0.000000 0.000004 -196.175628 -393.163447 594.235747 0.000001 -0.000002 -10.858099 90.603784 -147.202789 58.699902 0.000001 -0.000005 -12.079600 371.197340 5.217675 10.337403 2.190801 0.073899 -2.522500 -381.771156 -172.083529 -112.286377 -0.000001 0.000005 -20.305006 -989.248099 -48.517911 72.252610 -0.000005 0.000005 -16.771708 1556.233030 44.355911 79.695624 -2.029497 0.054300 -2.705205 -446.440289 -37.027661 -80.399905 -0.000000 -0.000009 -20.030397 357.385414 172.049323 27.964849 0.000002 0.000000 -17.032700 90.976446 75.936192 -84.605184
17.559296 -18.975000 14.793995 2671.733078 9.767600 -7.731615 -0.698599 0.806100 5.350893 -5.275129 -8.915968 18.355244 0.000001 0.000001 4.409106 1.236500 -5.724002 -0.415591 0.000001 0.000000 10.248297 56.296403 -5.085762 -16.973737 0.000001 -0.000001 2.173894 3.181208 -0.014849 6.549517 2.100600 -0.520899 6.016104 10.134330 -3.939069 11.487471 5.536696 0.000002 -0.000003 521.888908 218.423603 69.706978 -0.000003 -0.000003 -12.362092 493.161897 -2.602361 362.067180 -0.000000 -0.000002 -10.273200 2283.842591 179.879971 -179.802503 -2.899500 -1.655899 6.981702 -15.923232 -16.858934 28.795466 -4.387501 0.000000 0.000004 -196.104908 -393.996484 594.357379 -0.000003 -0.000002 -10.858100 90.515074 -148.413071 58.405590 0.000003 0.000002 -12.079604 372.816532 4.778724 10.559264 2.190805 0.073901 -2.522504 -382.050565 -171.968987 -112.137615 -0.000002 0.000005 -20.305006 -988.670866 -48.525185 72.421746 -0.000005 0.000004 -16.771708 1556.168662 44.236721 79.708096 -2.029499 0.054302 -2.705204 -446.828844 -36.873080 -80.942352 0.000002 -0.000004 -20.030401 357.465545 172.160683 27.916515 -0.000002 -0.000001 -17.032700 90.983584 76.030886 -84.267158
17.562595 -18.991299 14.764994 2671.868370 10.052369 -7.765543 -0.698602 0.806100 5.350904 -5.477617 -8.376792 18.337446 -0.000004 -0.000002 4.409106 1.115803 -5.866166 -0.403628 0.000004 0.000003 10.248299 56.030173 -5.035971 -16.638134 0.000000 0.000000 2.173893 3.219287 0.035424 6.435502 2.100604 -0.520897 6.016103 10.468697 -4.531386 11.332663 5.536695 0.000001 -0.000000 521.238565 219.071638 69.816882 0.000001 -0.000003 -12.362097 402.668038 -2.657090 358.426007 0.000001 0.000003 -10.273201 2371.541127 181.853527 -181.920914 -2.899501 -1.655895 6.981699 -16.238969 -17.249146 28.402288 -4.387499 -0.000001 -0.000001 -196.291891 -395.221574 594.009640 0.000005 -0.000005 -10.858097 89.551129 -149.146702 57.787061 0.000001 0.000002 -12.079594 374.392994 4.515602 11.392464 2.190801 0.073900 -2.522501 -382.333854 -171.895029 -111.952873 -0.000002 0.000005 -20.305004 -988.111665 -48.543363 72.601851 -0.000006 0.000004 -16.771708 1556.238385 44.054768 79.556882 -2.029500 0.054296 -2.705200 -447.231061 -36.777799 -81.497646 0.000000 -0.000003 -20.030394 357.539694 172.226758 27.841422 -0.000001 -0.000001 -17.032698 91.134606 76.152299 -83.928401
17.561996 -19.007700 14.741095 2672.030983 10.375617 -7.801853 -0.698600 0.806101 5.350900 -5.433783 -7.759873 18.383533 0.000001 0.000002 4.409097 0.907621 -5.960111 -0.557499 0.000003 0.000003 10.248300 55.451191 -4.886879 -16.133231 0.000001 0.000000 2.173893 3.214990 0.159206 6.371100 2.100605 -0.520896 6.016104 10.193279 -5.184267 11.212153 5.536697 0.000002 0.000005 520.504347 220.750143 69.743403 0.000001 0.000001 -12.362095 395.081747 -2.114957 358.401172 -0.000001 0.000001 -10.273202 2375.307676 183.917979 -183.249235 -2.899503 -1.655896 6.981701 -16.679406 -17.873661 27.886798 -4.387498 -0.000001 -0.000001 -197.198162 -397.130803 592.917575 -0.000003 0.000002 -10.858102 87.971484 -149.810050 57.393492 0.000000 -0.000002 -12.079605 376.491420 4.118506 11.901183 2.190803 0.073897 -2.522500 -382.753692 -171.701407 -111.779837 -0.000003 0.000005 -20.305008 -987.288436 -48.542004 72.891868 -0.000005 0.000005 -16.771706 1556.455203 43.667185 78.944474 -2.029499 0.054291 -2.705199 -447.724911 -36.638391 -82.084831 -0.000001 -0.000005 -20.030394 357.655507 172.283449 27.771059 -0.000002 -0.000001 -17.032698 91.434411 76.268829 -83.835811
17.560696 -19.017899 14.714098 2672.223977 10.907440 -7.852009 -0.698601 0.806102 5.350898 -5.888967 -7.524079 18.297409 0.000003 0.000001 4.409109 0.904295 -6.056708 -0.570137 0.000001 0.000004 10.248297 54.939419 -4.698343 -15.782250 0.000001 0.000002 2.173897 3.162051 0.168112 6.393064 2.100600 -0.520899 6.016104 10.483143 -5.801142 10.793777 5.536697 0.000001 0.000002 519.287207 223.632524 69.423778 -0.000001 -0.000001 -12.362091 387.498488 -1.734303 358.482861 0.000000 0.000003 -10.273202 2378.357765 184.356149 -183.703498 -2.899503 -1.655899 6.981699 -16.673624 -17.809218 27.429157 -4.387504 -0.000002 0.000003 -198.718876 -399.120137 591.689015 0.000002 0.000001 -10.858096 86.005278 -150.454314 57.035498 -0.000004 -0.000002 -12.079610 379.735732 3.854960 12.733261 2.190804 0.073898 -2.522504 -383.340652 -171.404403 -111.561762 -0.000002 0.000004 -20.305006 -985.722191 -48.308466 73.642717 -0.000006 0.000005 -16.771706 1556.787204 42.719073 77.968180 -2.029500 0.054295 -2.705202 -448.436589 -36.398379 -82.982598 0.000000 -0.000002 -20.030397 357.848473 172.392964 27.716365 -0.000000 -0.000000 -17.032700 91.671008 76.343613 -83.758364
17.559196 -19.020298 14.689299 2672.421342 11.553495 -7.902422 -0.698598 0.806102 5.350899 -6.096293 -7.230888 18.221480 0.000001 0.000003 4.409105 0.838071 -6.285370 -0.594877 0.000003 0.000001 10.248301 54.117249 -4.372926 -15.426954 0.000002 0.000000 2.173895 3.037846 0.230249 6.328915 2.100603 -0.520899 6.016108 10.684839 -6.337726 10.299527 5.536695 0.000001 0.000001 517.081493 227.891666 68.551945 0.000000 0.000000 -12.362089 377.801068 -1.091071 358.614001 -0.000001 0.000001 -10.273202 2382.366485 184.907947 -184.158675 -2.899500 -1.655899 6.981705 -16.890832 -17.784966 26.939497 -4.387496 -0.000003 0.000002 -198.230490 -399.032465 591.819062 0.000004 -0.000002 -10.858103 87.110033 -151.749004 57.014488 -0.000001 -0.000008 -12.079596 384.122107 4.033995 13.912123 2.190802 0.073900 -2.522502 -383.748906 -171.420386 -111.270134 -0.000004 0.000004 -20.305008 -984.247089 -47.982899 74.522405 -0.000005 0.000005 -16.771708 1557.357115 41.403975 76.667576 -2.029498 0.054304 -2.705199 -449.238043 -36.149568 -84.000398 0.000000 -0.000006 -20.030396 357.985487 172.536329 27.691819 -0.000001 0.000001 -17.032700 91.762984 76.347260 -83.819965
17.553997 -19.014000 14.669800 2672.985024 12.262938 -8.031098 -0.698601 0.806103 5.350901 -6.911313 -7.157479 18.018203 -0.000002 0.000002 4.409103 0.860880 -6.228327 -0.594401 0.000001 0.000003 10.248298 53.180942 -3.909598 -14.824033 0.000001 -0.000001 2.173889 2.929792 0.229566 6.347286 2.100603 -0.520899 6.016105 10.892867 -7.131605 9.796277 5.536695 0.000001 0.000004 516.466284 229.792617 68.546378 0.000002 -0.000003 -12.362093 301.920753 0.554493 360.050799 -0.000003 0.000001 -10.273200 2452.780818 187.775506 -185.208407 -2.899500 -1.655898 6.981699 -16.771909 -17.881201 26.789223 -4.387496 0.000000 -0.000000 -196.733873 -397.755766 592.843153 0.000000 -0.000004 -10.858095 89.659579 -152.546729 57.316598 -0.000001 -0.000002 -12.079608 388.416001 4.496668 15.361194 2.190800 0.073901 -2.522502 -384.598690 -171.340787 -110.966976 -0.000002 0.000005 -20.305006 -982.398239 -47.591529 75.572068 -0.000006 0.000004 -16.771708 1558.245696 39.589935 75.021739 -2.029501 0.054296 -2.705202 -450.509551 -35.820012 -85.146812 0.000002 -0.000001 -20.030399 358.109605 172.758570 27.703481 -0.000002 -0.000001 -17.032700 91.638886 76.331749 -83.868719
17.547195 -18.991898 14.661999 2673.096930 13.013734 -8.144896 -0.698601 0.806103 5.350900 -7.113742 -7.058612 17.919785 -0.000001 -0.000001 4.409102 0.841305 -6.216607 -0.595616 0.000005 -0.000001 10.248298 51.740018 -3.213746 -14.296923 -0.000003 -0.000003 2.173897 2.850780 0.209986 6.297168 2.100605 -0.520900 6.016103 10.695421 -7.830182 9.044748 5.536698 0.000003 0.000004 513.984029 235.149343 66.579912 -0.000002 -0.000000 -12.362091 296.679539 0.643169 360.747615 0.000001 0.000001 -10.273202 2449.263653 189.326382 -186.160562 -2.899496 -1.655899 6.981705 -17.137730 -15.422685 26.630972 -4.387496 0.000001 -0.000002 -195.516255 -394.080332 594.685665 0.000001 -0.000003 -10.858106 92.829934 -153.752736 58.435287 -0.000002 -0.000003 -12.079593 393.325459 4.970352 16.215363 2.190800 0.073901 -2.522502 -384.953724 -171.256338 -110.762965 -0.000001 0.000005 -20.305006 -980.439450 -47.177578 76.732401 -0.000006 0.000004 -16.771708 1559.447590 37.157332 73.226567 -2.029501 0.054302 -2.705202 -451.313328 -35.567500 -86.217246 -0.000000 -0.000004 -20.030401 358.139439 173.040233 27.767007 -0.000002 -0.000001 -17.032701 91.228596 76.272401 -83.917480
17.540691 -18.954599 14.656694 2673.239872 13.819655 -8.241959 -0.698599 0.806099 5.350902 -7.517968 -6.990415 17.701176 0.000000 0.000001 4.409104 0.898921 -6.206762 -0.598998 -0.000003 0.000002 10.248290 50.215920 -2.431375 -13.698338 0.000002 -0.000002 2.173900 2.675929 0.148047 6.144892 2.100598 -0.520898 6.016100 11.300974 -5.621796 8.133375 5.536691 0.000001 0.000004 511.494398 238.611047 64.984783 -0.000000 -0.000004 -12.362097 296.263171 0.833952 361.705836 -0.000005 0.000001 -10.273204 2447.689759 189.227427 -186.335579 -2.899504 -1.655899 6.981696 -16.520747 -15.140730 27.046559 -4.387503 0.000003 0.000004 -194.218314 -392.414531 596.012033 0.000001 -0.000007 -10.858097 96.071419 -153.485661 59.952935 0.000002 -0.000004 -12.079603 396.570564 4.984828 17.277896 2.190801 0.073898 -2.522501 -385.413423 -170.982024 -110.537814 -0.000002 0.000006 -20.305006 -977.879604 -46.203491 78.286768 -0.000007 0.000004 -16.771706 1560.252788 34.085642 71.736008 -2.029497 0.054296 -2.705201 -452.145600 -35.343422 -87.302870 0.000000 -0.000004 -20.030397 358.106190 173.328836 27.854601 -0.000001 0.000002 -17.032700 90.305496 75.962290 -84.468301
